<?xml version="1.0" encoding="utf-8"?>
<!-- Generator: Adobe Illustrator 23.0.2, SVG Export Plug-In . SVG Version: 6.00 Build 0)  -->
<svg version="1.1" id="Lager_1" xmlns="http://www.w3.org/2000/svg" xmlns:xlink="http://www.w3.org/1999/xlink" x="0px" y="0px"
	 viewBox="0 0 179.1 112.8" style="enable-background:new 0 0 179.1 112.8;" xml:space="preserve">
<style type="text/css">
	.st0{fill:#AA1B44;}
	.st1{fill:#F7AA4E;}
</style>
<title>Prisonisland_logo</title>
<g>
	<g id="Layer_2">
		<g id="Layer_1-2">
			<path class="st0" d="M0.1,33c1.6-0.4,2-1.1,2-3V10.2c0-2-0.5-2.6-2-3V0.8h16.3c4.4,0.1,6.9,0.9,8.9,3.2c1.1,1.3,1.8,2.9,2.2,4.6
				c0.3,1.8,0.4,3.6,0.4,5.4c0,4.8-0.2,6.6-1.3,8.5c-1.1,2.1-3,3.6-5.3,4.3c-1.7,0.5-3.4,0.7-5.1,0.6h-5.2v2.5c0.1,1.9,0.5,2.6,2,3
				v6.3H0.1V33z M10.9,19.2h3.9c3.1,0,4.1-1.3,4.1-5s-1-5.1-4.1-5.1h-3.9V19.2z"/>
			<path class="st0" d="M31.7,33c1.6-0.4,2-1.1,2-3V10.2c0-2-0.5-2.6-2-3V0.8H48c3.7,0.1,6.2,0.7,8,2.1c2.3,1.8,3.6,4.9,3.6,8.9
				c0,5.2-1.8,7.9-6.1,9c3.8,0.6,5.3,2.3,5.2,5.8l-0.1,3.1c0,2,0.3,2.7,1.7,3.4v6.2h-9.7c-0.6-1.6-0.7-2.9-0.7-6v-4.2
				c0-2.2-0.1-2.8-0.5-3.5c-0.6-1.1-1.5-1.5-3.6-1.5h-3.3V30c0.1,1.9,0.5,2.6,2,3v6.3H31.7V33z M42.5,17.2h3c2.2,0,3-0.2,3.8-0.8
				s1.3-2,1.3-3.9c0-3.4-1.3-4.5-5.4-4.5h-2.8L42.5,17.2z"/>
			<path class="st0" d="M66.1,33c1.6-0.4,2-1.1,2-3V10.2c0-2-0.5-2.6-2-3V0.8H79v6.3c-1.5,0.3-2,1.1-2,3v19.8c0.1,1.9,0.5,2.6,2,3
				v6.3H66.1V33z"/>
			<path class="st0" d="M110.1,13.5h-8.5v-0.6v-1c0.2-2.1-1.3-3.9-3.4-4.1c-0.2,0-0.5,0-0.7,0c-2.4,0-4.1,1.5-4.1,3.5
				c0,1.7,1.3,2.8,4.6,4.1l3.7,1.4c6.8,2.6,9.2,5.4,9.2,11.2c0,7.6-5,12.1-13.2,12.1c-4.7,0-9.3-1.6-13.1-4.4v-9.7h8.8v0.4
				c-0.1,1.3,0.1,2.6,0.5,3.7c0.8,1.4,2.2,2.2,3.8,2.1c2.1,0.1,4-1.5,4.1-3.6c0-0.1,0-0.2,0-0.4c0-2.4-1.2-3.4-6.4-5.5
				c-1.9-0.7-3.8-1.5-5.6-2.4c-3.5-1.8-5.1-4.7-5.1-8.9C84.5,4.2,89.4,0,97.7,0c4.5,0,8.8,1.5,12.3,4.3V13.5z"/>
			<path class="st0" d="M142.7,20.5c-0.1,3.6-0.9,5.6-3,7.3c-2.4,1.9-5.5,2.8-10,2.8s-7.7-0.9-10-2.8c-2.1-1.7-2.9-3.9-2.9-7.3V10.2
				c0-3.6,0.9-5.6,2.9-7.2c2.4-2,5.6-2.8,10-2.8s7.7,0.9,10,2.8c2.1,1.7,3,3.8,3,7.2V20.5z M125.6,17.6c0,2,0.1,2.7,0.7,3.5
				c0.8,1.1,2.1,1.8,3.5,1.8c1.4,0,2.7-0.6,3.5-1.8c0.6-0.8,0.7-1.5,0.7-3.3v-4.8c0-2-0.1-2.7-0.7-3.5c-0.8-1.1-2.1-1.8-3.5-1.8
				c-1.4,0-2.7,0.6-3.4,1.8c-0.6,0.8-0.7,1.5-0.7,3.4L125.6,17.6z"/>
			<path class="st0" d="M148.4,33c1.6-0.4,2-1.1,2-3V10.2c0-2-0.5-2.6-2-3.1V0.8h10.1l9.8,19.8V10.2c-0.1-2-0.5-2.6-2-3.1V0.8h12.2
				v6.3c-1.6,0.4-2,1.1-2,3.1v29.1h-8.1l-10-20.1v10.8c0.1,1.9,0.5,2.6,2,3v6.3h-12.1V33z"/>
			<path class="st0" d="M0,76.4c1.5-0.4,2-1.1,2-3.1V53.6c0-1.9-0.5-2.6-2-3v-6.3h12.8v6.3c-1.5,0.3-2,1.1-2,3v19.8
				c0.1,2,0.5,2.6,2,3.1v6.3H0V76.4z"/>
			<path class="st0" d="M45.1,56.9h-8.5v-0.6l-0.1-1c0.1-2.6-1.5-4.1-4.2-4.1c-2.4,0-4.1,1.5-4.1,3.5c0,1.7,1.3,2.8,4.6,4.1l3.7,1.4
				c6.8,2.6,9.2,5.4,9.2,11.2c0,7.5-5,12.1-13.2,12.1c-4.7,0-9.3-1.6-13.1-4.4v-9.7h8.8v0.5c-0.1,1.3,0.1,2.6,0.5,3.7
				c0.8,1.4,2.2,2.2,3.8,2.1c2.1,0.1,4-1.5,4.1-3.7c0-0.1,0-0.2,0-0.3c0-2.4-1.2-3.5-6.4-5.5c-1.9-0.7-3.8-1.5-5.6-2.4
				c-3.5-1.8-5.1-4.7-5.1-8.9c0-7.1,4.9-11.3,13.2-11.3c4.5,0,8.9,1.5,12.4,4.4V56.9z"/>
			<path class="st0" d="M50,76.4c1.6-0.4,2-1.1,2-3.1V53.6c0-1.9-0.5-2.6-2-3v-6.3h12.8v6.3c-1.5,0.3-2,1.1-2,3v21.5h3.6
				c2.9,0,3.8-0.9,3.8-3.3v-6.6h7.8v17.4H50V76.4z"/>
			<path class="st0" d="M108.3,73c0.5,2.4,0.9,3,2.2,3.4v6.3H97.4v-6.3c1.3-0.1,2-0.6,2-1.8c0-0.2-0.1-0.2-0.2-0.9l-0.1-0.2
				l-0.3-1.6h-7.4l-0.3,1.6c-0.1,0.4-0.1,0.8-0.1,1.2c0,1.1,0.8,1.7,2.1,1.7v6.3H81.4v-6.3c1.3-0.4,1.7-1.1,2.2-3.7l5.6-28.4h13.2
				L108.3,73z M95,53.7l-2.5,12.6h5.2L95,53.7z"/>
			<path class="st0" d="M115.5,76.4c1.6-0.4,2-1.1,2-3.1V53.6c0-1.9-0.5-2.6-2-3.1v-6.3h10.1l9.8,19.8V53.6c-0.1-1.9-0.5-2.6-2-3.1
				v-6.3h12.2v6.3c-1.6,0.4-2,1.1-2,3.1v29.1h-8.1l-10-20.1v10.8c0.1,2,0.5,2.6,2,3.1v6.3h-12V76.4z"/>
			<path class="st0" d="M151.6,44.3h15.1c4.6,0,7,0.8,9.1,2.8c2.4,2.2,3.3,4.9,3.3,9.7v13.4c0,5.1-0.9,7.6-3.3,9.8
				c-2.2,2-4.7,2.7-9.1,2.7h-15.1v-6.3c1.6-0.4,2-1.1,2-3.1V53.6c0-1.9-0.5-2.6-2-3V44.3z M162.4,75.1h3.3c3.2-0.1,4.7-1.2,4.7-3.8
				V55.6c-0.1-2.6-1.4-3.8-4.7-3.8h-3.3V75.1z"/>
			<rect x="116.8" y="33" class="st0" width="25.9" height="6.3"/>
			<path class="st1" d="M15,107.2c-0.4,0-0.8,0-1.1,0c-1.6,0-2.6,0-3.2,0c-0.2,0-0.3,0-0.3-0.2c0.1-0.3,0.1-0.5,0.3-0.8
				c0.2-0.5,0.6-0.8,1-0.7h2.6h3.1c0.3,0,0.5,0.2,0.5,0.5c0,0.3-0.1,0.6-0.3,0.9c-0.2,0.2-0.5,0.4-0.8,0.4L15,107.2z"/>
			<path class="st1" d="M36,102.2c-0.7,0.6-1.4,1.1-2.3,1.6c-0.2,0.1-0.3,0.2-0.2,0.4c0.8,1,1.2,2.2,1.2,3.4c0,0.5-0.1,1-0.3,1.5
				c-0.3,0.9-1,1.7-1.9,2.1c-0.8,0.4-1.6,0.7-2.5,0.8c-1.1,0-2.1-0.2-3.1-0.6c-0.4-0.2-0.7-0.1-0.9,0.1c-0.2,0.3-0.5,0.6-0.9,0.8
				c-0.5,0.4-1.1,0.6-1.7,0.6c-0.4,0-0.7-0.1-1-0.3c-0.8-0.4-1.2-1.3-1.1-2.1c0.1-1.3,0.4-2.5,1-3.7c0.9-1.8,2-3.5,3.3-5
				c0.6-0.8,1.2-1.4,1.6-1.9c0.3-0.4,0.7-0.7,1.1-1c0.2-0.1,0.4-0.4,0.4-0.6c0-0.2,0.1-0.3,0.1-0.6s0.1-0.4,0.1-0.7s0.3-0.6,0.8-0.8
				c0.4-0.2,0.8-0.2,1.2-0.3c0.3,0,0.4,0.1,0.4,0.3s0.1,0.4,0.3,0.3c0.2-0.1,0.4-0.2,0.6-0.2l0.5-0.2c0.6-0.2,1.2-0.3,1.8-0.3
				c1.7,0.2,2.5,1.3,2.5,3.3v0.3c0,0.1,0,0.2,0,0.3C37.2,100.7,36.8,101.5,36,102.2z M27.8,101.8c0,0-0.1,0-0.2,0.1
				c-1.2,1.2-2.1,2.6-2.8,4.1c-0.7,1.2-1.2,2.4-1.4,3.8c0,0.6,0.1,0.8,0.5,0.8c0.6,0,1.4-1.3,2.4-3.8c0.7-1.5,1.2-3.1,1.7-4.7
				C28,101.9,28,101.8,27.8,101.8z M32.4,106.5c-0.1-0.6-0.2-1.2-0.5-1.8c-0.1-0.2-0.2-0.3-0.4-0.3c-0.4,0.1-0.8,0.1-1.1,0.1
				c-0.5,0-0.7,0.1-0.8,0.2c-0.5,1.5-1.1,3-1.8,4.4c-0.2,0.2-0.2,0.4,0,0.6c0.3,0.2,0.7,0.2,1.1,0.2c1.3,0.1,2.5-0.6,3-1.7
				C32.2,107.7,32.4,107.1,32.4,106.5z M34.9,99.2c0-0.8-0.3-1.3-0.8-1.5c-0.2-0.1-0.5-0.1-0.7-0.1c-0.7,0-1.4,0.3-1.9,0.7
				c-0.2,0.2-0.3,0.4-0.4,0.6c-0.2,0.7-0.3,1.2-0.4,1.7c-0.1,0.4-0.2,0.8-0.3,1c-0.1,0.1,0,0.3,0.1,0.4c0,0,0.1,0,0.1,0
				c0.6,0.1,1.1,0.3,1.6,0.6c0,0,0.1,0,0.1,0c0.2,0,0.7-0.3,1.2-0.9c0.5-0.5,0.9-1.1,1.2-1.7C34.8,99.8,34.9,99.5,34.9,99.2z"/>
			<path class="st1" d="M46.2,110.6c-0.6,0.7-1.5,1.1-2.3,1.2c-0.8,0.2-1.6,0.2-2.4,0.2c-1.4,0.1-2.7-0.2-3.9-0.9
				c-0.9-0.7-1.4-1.9-1.3-3c0-1.2,0.4-2.5,1-3.6c0.4-0.9,1.1-1.5,1.9-2c0.7-0.4,1.4-0.6,2.1-0.6c0.3,0,0.7,0,1,0.2
				c0.9,0.4,1.5,1.3,1.4,2.3c0,0.3,0,0.5-0.1,0.8c-0.3,1.1-0.9,2.1-1.7,2.8c-0.3,0.4-0.6,0.7-1,0.9c-0.3,0.3-0.6,0.5-0.9,0.8
				c-0.1,0.1-0.1,0.1-0.1,0.1s0.1,0.1,0.3,0.2c1.1,0.5,2.2,0.6,3.3,0.4c1-0.1,1.9-0.7,2.5-1.6c0.1-0.1,0.1-0.1,0.2,0.1
				c0.1,0.3,0.2,0.6,0.1,0.9C46.3,110.3,46.3,110.5,46.2,110.6z M40.4,104.3c-0.4,0.3-0.7,0.7-0.9,1.2c-0.5,0.8-0.7,1.7-0.8,2.7
				c0,0.5,0.2,0.7,0.5,0.4c1-0.6,1.8-1.5,2.5-2.5c0.3-0.4,0.5-0.9,0.5-1.5c0-0.6-0.2-0.8-0.7-0.8C41.1,103.9,40.7,104.1,40.4,104.3z
				"/>
			<path class="st1" d="M58.4,110.6c-0.6,0.7-1.5,1.1-2.4,1.2l-0.6,0.1c-0.2,0-0.4,0-0.7,0c-0.8,0.1-1.6-0.1-2.3-0.4
				c-0.4-0.3-0.6-0.7-0.6-1.2c0-0.4,0.1-0.7,0.2-1.1c0,0,0-0.1,0-0.1c0,0-0.1,0-0.1,0.1c-0.1,0-0.1,0.1-0.1,0.2
				c-0.3,0.6-0.8,1.1-1.3,1.6c-0.7,0.7-1.6,1.1-2.6,1.2c-0.7,0-1.4-0.3-1.8-0.8c-0.5-0.5-0.7-1.2-0.7-1.9c0.1-1.2,0.4-2.4,1-3.4
				c0.6-1.2,1.5-2.2,2.7-2.8c0.8-0.5,1.7-0.7,2.6-0.8c0.6,0,1.3,0.1,1.8,0.4c0.2,0.1,0.4,0.1,0.5-0.1c0.1-0.1,0.2-0.3,0.3-0.4
				c0.1-0.1,0.2-0.2,0.4-0.3c0.3,0,0.6,0,0.9,0.1c0.3,0,0.6,0.1,0.8,0.3c0.2,0.2,0.2,0.5,0.1,0.7c-0.2,0.5-0.7,1.5-1.3,3
				c-0.3,0.6-0.5,1.1-0.6,1.6s-0.3,0.9-0.4,1.2c-0.1,0.3-0.2,0.6-0.2,0.8c0,0.2,0.1,0.3,0.2,0.5c0.5,0.3,1,0.5,1.6,0.4
				c0.4,0,0.8-0.2,1.2-0.4c0.3-0.2,0.5-0.3,0.8-0.5c0.2-0.2,0.4-0.4,0.6-0.6c0.1-0.1,0.2-0.1,0.2,0.1c0.1,0.3,0.2,0.6,0.1,0.9
				C58.6,110.3,58.5,110.5,58.4,110.6z M53.2,104.6c0-0.3-0.3-0.4-0.8-0.4c-0.6,0-1.2,0.2-1.8,0.6c-0.6,0.4-1.2,0.9-1.6,1.5
				c-0.6,0.8-1,1.8-1.1,2.9c0,0.8,0.3,1.1,0.9,1.1c0.4-0.1,0.8-0.3,1.1-0.6c0.1-0.1,0.2-0.2,0.4-0.4l0.7-0.8
				c0.9-1.2,1.7-2.4,2.2-3.8C53.2,104.7,53.2,104.7,53.2,104.6L53.2,104.6z"/>
			<path class="st1" d="M65.1,110.6c-0.6,0.7-1.5,1.1-2.4,1.2c-0.4,0.1-0.8,0.1-1.2,0.1c-0.8,0-1.5-0.1-2.2-0.5
				c-0.8-0.5-1.2-1.5-1-2.4c0.1-0.9,0.3-1.8,0.6-2.6c0.2-0.7,0.3-1.2,0.4-1.5l0.2-0.6c0-0.1-0.1-0.2-0.2-0.2h-0.4h-0.5
				c-0.2,0-0.2-0.1-0.1-0.3l0.1-0.3c0-0.1,0.1-0.3,0.2-0.5c0.1-0.2,0.3-0.3,0.5-0.2h0.4h0.2h0.1c0.1,0,0.2-0.1,0.3-0.2
				c0.2-0.7,0.4-1.4,0.6-2.1s0.5-1.5,0.7-2.4c0.1-0.2,0.3-0.3,0.5-0.4c0.6-0.2,1.2-0.2,1.8,0c0.2,0.1,0.3,0.3,0.3,0.7
				c-0.2,0.7-0.5,1.4-0.7,2s-0.5,1.4-0.7,2.2c0,0.1,0,0.2,0.2,0.3h0.7h0.8c0.1,0,0.2,0.1,0.2,0.3c0,0.3,0,0.6-0.2,0.8
				c0,0.1-0.2,0.2-0.3,0.2c0.1,0-0.5,0-1.6,0c-0.1,0-0.2,0.1-0.3,0.2c-0.2,0.6-0.4,1.3-0.6,2.1s-0.5,1.5-0.7,2.4
				c-0.2,0.4-0.1,0.9,0.2,1.2c0.4,0.4,1,0.6,1.5,0.6c0.4,0,0.8-0.2,1.2-0.4c0.3-0.2,0.5-0.3,0.7-0.5c0.2-0.2,0.4-0.4,0.6-0.6
				c0.1-0.1,0.2-0.1,0.2,0.1c0.1,0.3,0.2,0.6,0.1,0.9C65.3,110.2,65.2,110.5,65.1,110.6z"/>
			<path class="st1" d="M80.8,110.6c-0.6,0.7-1.5,1.1-2.3,1.2c-0.4,0.1-0.8,0.1-1.2,0.1c-0.8,0-1.5-0.1-2.2-0.5
				c-0.8-0.5-1.2-1.4-1.1-2.4c0.1-0.9,0.3-1.8,0.6-2.6c0.2-0.7,0.3-1.2,0.4-1.5s0.2-0.5,0.2-0.6s-0.1-0.2-0.2-0.2h-0.4h-0.5
				c-0.1,0-0.2-0.1-0.1-0.3l0.1-0.3l0.2-0.5c0.1-0.2,0.3-0.3,0.5-0.2h0.4h0.2h0.2c0.1,0,0.2-0.1,0.3-0.2c0.2-0.7,0.4-1.4,0.6-2.1
				l0.7-2.4c0.1-0.2,0.3-0.3,0.5-0.4c0.6-0.2,1.2-0.2,1.8,0c0.2,0.1,0.3,0.3,0.3,0.7c-0.2,0.7-0.4,1.4-0.7,2s-0.4,1.4-0.7,2.2
				c0,0.1,0,0.2,0.2,0.3c0,0,0,0,0,0h0.7H80c0.1,0,0.2,0.1,0.2,0.3c0,0.3,0,0.6-0.2,0.8c0,0.1-0.2,0.2-0.3,0.2c0.1,0-0.5,0-1.6,0
				c-0.1,0-0.2,0.1-0.3,0.2l-0.6,2.1c-0.2,0.7-0.4,1.5-0.7,2.4c-0.2,0.4-0.1,0.9,0.2,1.2c0.4,0.4,1,0.6,1.5,0.6
				c0.4,0,0.8-0.2,1.2-0.4c0.3-0.1,0.5-0.3,0.8-0.5c0.2-0.2,0.4-0.4,0.6-0.6c0.1-0.1,0.1-0.1,0.2,0.1c0.1,0.3,0.2,0.6,0.1,0.9
				C81,110.2,81,110.4,80.8,110.6z"/>
			<path class="st1" d="M93,110.6c-0.6,0.7-1.5,1.1-2.4,1.2l-0.6,0.1c-0.2,0-0.5,0-0.7,0c-0.9,0.1-1.8-0.1-2.6-0.5
				c-0.5-0.2-0.8-0.7-0.8-1.2c0-0.1,0-0.1,0-0.2s0-0.2,0-0.4c0.2-0.9,0.5-1.8,0.8-2.6c0.1-0.4,0.2-0.7,0.4-1.1s0.2-0.7,0.4-1.1
				c0-0.1,0-0.1,0-0.2c0-0.2-0.1-0.3-0.2-0.3c-0.2,0-0.4,0.1-0.6,0.2c-1,0.8-1.8,1.8-2.4,2.9c-0.8,1.1-1.4,2.3-1.9,3.6
				c-0.1,0.4-0.3,0.6-0.7,0.7c-0.3,0.1-0.6,0.1-0.9,0.1c-0.4-0.1-0.6-0.4-0.5-0.8c0.2-0.8,0.4-1.9,0.8-3.3c0.4-1.4,0.9-3.1,1.5-5.1
				c1.1-3.5,1.7-5.4,1.9-5.9c0.1-0.3,0.4-0.6,0.7-0.7c0.3-0.1,0.6-0.1,0.9-0.1c0.3,0,0.6,0,0.8,0.2c0.2,0.1,0.3,0.4,0.4,0.6
				c0,0.2-0.1,0.4-0.2,0.6c-0.9,2.4-1.7,4.3-2.2,5.6c-0.5,1.3-0.8,2.1-0.9,2.3s-0.1,0.4,0.1,0.4s0.1,0,0.1-0.1
				c0.1-0.1,0.2-0.2,0.3-0.4c0.1-0.2,0.3-0.4,0.6-0.7l0.8-0.9c0.2-0.2,0.4-0.5,0.6-0.7c0.5-0.6,1.3-0.9,2.1-0.9c0.2,0,0.5,0,0.7,0.1
				c0.7,0.2,1.1,0.9,1,1.5c0,0.2,0,0.3-0.1,0.5c-0.2,0.6-0.4,1.2-0.7,2l-0.9,2.6c-0.1,0.3-0.2,0.6-0.2,0.9c0,0.3,0.2,0.6,0.5,0.8
				c0.5,0.2,1,0.2,1.5,0.2c0.4,0,0.8-0.2,1.2-0.4c0.3-0.1,0.5-0.3,0.8-0.5c0.2-0.2,0.4-0.4,0.6-0.6c0.1-0.1,0.1-0.1,0.2,0.1
				c0.1,0.3,0.2,0.6,0.1,0.9C93.1,110.3,93.1,110.4,93,110.6z"/>
			<path class="st1" d="M102.3,110.6c-0.6,0.7-1.5,1.1-2.3,1.2c-0.8,0.2-1.6,0.2-2.4,0.2c-1.4,0.1-2.7-0.2-3.9-0.9
				c-0.9-0.7-1.4-1.9-1.3-3c0.1-1.2,0.4-2.5,1-3.6c0.4-0.9,1.1-1.6,2-2c0.7-0.4,1.4-0.6,2.1-0.6c0.3,0,0.7,0,1,0.2
				c0.9,0.4,1.5,1.3,1.4,2.3c0,0.3,0,0.5-0.1,0.8c-0.3,1.1-1,2-1.8,2.8c-0.3,0.4-0.6,0.7-1,0.9c-0.3,0.3-0.6,0.5-0.9,0.8
				c-0.1,0.1-0.1,0.1-0.1,0.1c0,0.1,0.1,0.1,0.3,0.2c1.1,0.4,2.2,0.6,3.3,0.4c1-0.1,2-0.7,2.5-1.5c0.1-0.1,0.1-0.1,0.2,0.1
				c0.1,0.3,0.2,0.6,0.1,0.9C102.4,110.3,102.4,110.5,102.3,110.6z M96.5,104.3c-0.4,0.3-0.7,0.7-0.9,1.2c-0.4,0.8-0.7,1.7-0.8,2.7
				c0,0.5,0.2,0.7,0.5,0.4c1-0.6,1.9-1.4,2.5-2.5c0.3-0.4,0.5-0.9,0.5-1.5c0-0.6-0.2-0.8-0.7-0.8C97.2,103.9,96.8,104.1,96.5,104.3z
				"/>
			<path class="st1" d="M125.6,102.2c-0.7,0.6-1.4,1.1-2.3,1.6c-0.2,0.1-0.3,0.2-0.2,0.4c0.8,1,1.2,2.2,1.2,3.4c0,0.5-0.1,1-0.3,1.5
				c-0.3,0.9-1,1.7-1.9,2.1c-0.8,0.4-1.6,0.7-2.5,0.8c-1.1,0-2.1-0.2-3.1-0.6c-0.4-0.2-0.7-0.1-0.9,0.1c-0.2,0.3-0.5,0.6-0.9,0.8
				c-0.5,0.4-1.1,0.6-1.7,0.6c-0.4,0-0.7-0.1-1-0.3c-0.8-0.4-1.2-1.3-1.1-2.1c0.1-1.3,0.4-2.5,1-3.7c0.9-1.8,2-3.5,3.3-5
				c0.6-0.8,1.2-1.4,1.7-1.9c0.3-0.4,0.7-0.7,1.1-1c0.2-0.1,0.4-0.4,0.4-0.6c0-0.2,0.1-0.3,0.1-0.6s0.1-0.4,0.1-0.7s0.3-0.6,0.8-0.8
				c0.4-0.2,0.8-0.2,1.2-0.3c0.3,0,0.4,0.1,0.4,0.3s0.1,0.4,0.3,0.3c0.2-0.1,0.4-0.2,0.6-0.2l0.6-0.2c0.6-0.2,1.2-0.3,1.8-0.3
				c1.7,0.2,2.6,1.3,2.6,3.3v0.3c0,0.1,0,0.2,0,0.3C126.8,100.7,126.4,101.6,125.6,102.2z M117.4,101.8c-0.1,0-0.1,0-0.2,0.1
				c-1.2,1.2-2.1,2.6-2.8,4.1c-0.7,1.2-1.2,2.4-1.4,3.8c-0.1,0.6,0.1,0.8,0.4,0.8c0.6,0,1.4-1.3,2.4-3.8c0.7-1.5,1.2-3.1,1.7-4.7
				C117.6,101.9,117.5,101.8,117.4,101.8z M122,106.5c-0.1-0.6-0.2-1.2-0.5-1.8c-0.1-0.2-0.2-0.3-0.4-0.3c-0.4,0.1-0.8,0.1-1.2,0.1
				c-0.5,0-0.7,0.1-0.7,0.2c-0.5,1.5-1.1,3-1.8,4.4c-0.2,0.2-0.2,0.4,0,0.6c0.3,0.2,0.7,0.2,1.1,0.2c1.3,0.1,2.5-0.6,3-1.7
				C121.8,107.7,122,107.1,122,106.5z M124.4,99.2c0-0.8-0.3-1.3-0.8-1.5c-0.2-0.1-0.5-0.1-0.7-0.1c-0.7,0-1.4,0.3-1.9,0.7
				c-0.2,0.2-0.3,0.4-0.4,0.6c-0.2,0.7-0.3,1.2-0.4,1.7c-0.1,0.4-0.2,0.8-0.3,1c-0.1,0.1,0,0.3,0.1,0.4c0,0,0.1,0,0.1,0
				c0.6,0.1,1.1,0.3,1.6,0.6h0.1c0.2,0,0.7-0.3,1.2-0.9c0.5-0.5,0.9-1.1,1.2-1.7C124.4,99.8,124.4,99.5,124.4,99.2z"/>
			<path class="st1" d="M138.7,110.6c-0.6,0.7-1.5,1.1-2.4,1.2l-0.6,0.1c-0.2,0-0.4,0-0.6,0c-0.8,0.1-1.6-0.1-2.3-0.4
				c-0.4-0.3-0.6-0.7-0.6-1.2c0-0.4,0.1-0.7,0.2-1.1c0,0,0-0.1,0-0.1c0,0-0.1,0-0.1,0.1c-0.1,0-0.1,0.1-0.1,0.2
				c-0.3,0.6-0.8,1.1-1.3,1.6c-0.7,0.7-1.6,1.1-2.6,1.2c-0.7,0-1.4-0.3-1.8-0.8c-0.5-0.5-0.7-1.2-0.7-1.9c0.1-1.2,0.4-2.4,1-3.4
				c0.6-1.2,1.5-2.2,2.7-2.8c0.8-0.5,1.7-0.7,2.6-0.8c0.6,0,1.2,0.1,1.8,0.4c0.3,0.1,0.4,0.1,0.5-0.1c0.1-0.1,0.2-0.3,0.3-0.4
				c0.1-0.1,0.2-0.2,0.4-0.3c0.3,0,0.6,0,0.9,0.1c0.3,0,0.6,0.1,0.8,0.3c0.2,0.2,0.2,0.5,0.1,0.7c-0.2,0.5-0.7,1.5-1.3,3
				c-0.3,0.6-0.5,1.1-0.6,1.6s-0.3,0.9-0.4,1.2c-0.1,0.3-0.2,0.6-0.2,0.8c0,0.2,0,0.4,0.2,0.5c0.5,0.3,1,0.5,1.6,0.4
				c0.4,0,0.8-0.2,1.2-0.4c0.3-0.2,0.5-0.3,0.7-0.5c0.2-0.2,0.4-0.4,0.6-0.6c0.1-0.1,0.1-0.1,0.2,0.1c0.1,0.3,0.2,0.6,0.1,0.9
				C138.9,110.3,138.8,110.5,138.7,110.6z M133.5,104.6c0-0.3-0.3-0.4-0.8-0.4c-0.6,0-1.2,0.2-1.8,0.6c-0.6,0.4-1.2,0.9-1.6,1.6
				c-0.6,0.8-1,1.8-1.1,2.9c0,0.8,0.3,1.1,0.9,1.1c0.4-0.1,0.8-0.3,1.1-0.6c0.1-0.1,0.2-0.2,0.4-0.4l0.7-0.8
				c0.9-1.2,1.6-2.4,2.2-3.8C133.5,104.7,133.5,104.7,133.5,104.6L133.5,104.6z"/>
			<path class="st1" d="M148.6,110.6c-0.6,0.7-1.5,1.1-2.4,1.2c-1.1,0.3-2.2,0.2-3.2-0.1c-0.6-0.2-1-0.8-1-1.4c0-0.2,0-0.4,0.1-0.6
				c0.1-0.4,0.2-0.8,0.3-1.2s0.3-0.8,0.4-1.3c0.2-0.5,0.3-1,0.6-1.4c0.1-0.2,0.1-0.4,0-0.6c-0.3-0.3-0.6-0.6-1-0.8
				c-0.1-0.1-0.2,0-0.3,0.2l-0.9,2.2c-0.2,0.5-0.3,0.8-0.3,0.8c-0.6,1.2-1.5,2.4-2.5,3.2c-0.6,0.5-1.3,0.8-2,0.9
				c-0.1,0-0.2,0-0.2-0.1c-0.1-0.2-0.2-0.5-0.2-0.8c0-0.1,0-0.2,0.1-0.2c0.5-0.1,1-0.3,1.4-0.6c0.4-0.3,0.8-0.7,1.1-1.1
				c0.5-0.6,0.9-1.3,1.2-2.1c0.5-1,0.9-2.1,1.2-3.2c0-0.1,0-0.1,0-0.1v-0.1c0-0.2-0.1-0.3-0.2-0.4c-0.1-0.2-0.2-0.4-0.1-0.6
				c0-0.1,0-0.1,0-0.2c0-0.1,0-0.2,0-0.2c0.2-0.9,0.6-1.4,1.4-1.4s1,0.4,1,1.2c0,0.2,0,0.4-0.1,0.6c0,0.1,0,0.2,0,0.2
				c0.1,0.1,0.1,0.1,0.2,0.1l0.5,0.2c0.2,0.1,0.4,0.2,0.7,0.4c0.4,0.2,0.8,0.5,1.2,0.7c0.3,0.2,0.4,0.6,0.4,1
				c-0.2,0.8-0.5,1.5-0.8,2.3c-0.3,0.6-0.4,1.1-0.6,1.5c-0.1,0.3-0.2,0.5-0.2,0.8c-0.1,0.3,0,0.7,0.4,0.8c0.1,0,0.1,0,0.2,0
				c0.4,0,0.8,0,1.1,0c0.4-0.1,0.8-0.2,1.2-0.4c0.5-0.3,1-0.7,1.3-1.1c0.1-0.1,0.1-0.1,0.2,0.1c0.1,0.3,0.2,0.6,0.1,0.9
				C148.7,110.3,148.7,110.4,148.6,110.6z"/>
			<path class="st1" d="M158.6,110.6c-0.6,0.7-1.5,1.1-2.4,1.2c-0.5,0.1-1.1,0.1-1.6,0.1c-0.5,0-0.9-0.1-1.4-0.3c-0.1,0-0.2,0-0.3,0
				c-0.2,0.1-0.4,0.1-0.6,0.2c-0.4,0.1-0.9,0.1-1.3,0.1c-1,0.1-2-0.2-2.7-0.9c-0.1-0.1-0.2-0.1-0.2,0c-0.5,0.4-1.2,0.7-1.8,0.8
				c-0.1,0-0.2-0.1-0.2-0.1c-0.1-0.2-0.2-0.5-0.2-0.8c0-0.2,0-0.2,0.1-0.3c1-0.2,1.8-0.8,2.4-1.6c0.2-0.2,0.5-0.6,0.8-1
				s0.7-0.9,1.1-1.5c0.6-0.8,1.2-1.7,1.6-2.6c0-0.2,0-0.3-0.1-0.5c-0.1-0.2-0.1-0.4-0.1-0.6c0-0.1,0-0.1,0-0.2v-0.2
				c0.1-0.4,0.4-0.8,0.8-1c0.4-0.3,0.8-0.4,1.3-0.4c0.8,0,1.2,0.4,1.2,0.9c-0.1,0.3-0.2,0.6-0.3,0.8c-0.1,0.2-0.2,0.4-0.3,0.5
				s-0.1,0.2-0.1,0.3c-0.1,0.2-0.1,0.4,0,0.4c0.2,0.2,0.3,0.3,0.4,0.5c0.2,0.3,0.3,0.5,0.5,0.8c0.4,0.7,0.6,1.6,0.6,2.4
				c0,0.2-0.1,0.5-0.1,0.7c-0.1,0.3-0.2,0.6-0.4,0.9c-0.2,0.3-0.3,0.6-0.6,0.9c-0.1,0.1-0.1,0.2,0,0.3c0.4,0.1,0.8,0.1,1.2,0.1
				c0.4-0.1,0.8-0.2,1.2-0.4c0.5-0.3,1-0.7,1.3-1.1c0.1-0.1,0.1-0.1,0.2,0.1c0.1,0.3,0.2,0.6,0.1,0.9
				C158.7,110.3,158.7,110.5,158.6,110.6z M153.2,107.4c0-0.5-0.1-1-0.3-1.5c0-0.1-0.1-0.1-0.2-0.1s-0.1,0.1-0.2,0.2
				c-0.3,0.5-0.7,1.1-1.1,1.6c-0.6,0.8-1,1.3-1.2,1.5c-0.1,0.1-0.1,0.2-0.1,0.2c0,0.1,0.1,0.2,0.3,0.2c0.3,0.2,0.5,0.5,0.6,0.8
				c0,0.1,0.2,0.1,0.5,0c0.8-0.3,1.4-1,1.6-1.9C153.1,108.2,153.2,107.8,153.2,107.4z"/>
			<path class="st1" d="M165.9,107.2c-0.4,0-0.8,0-1.1,0c-1.6,0-2.6,0-3.2,0c-0.2,0-0.3,0-0.3-0.2c0.1-0.3,0.1-0.5,0.3-0.8
				c0.2-0.5,0.6-0.8,1-0.7h2.6h3.1c0.3,0,0.5,0.2,0.5,0.5c0,0.3-0.1,0.6-0.3,0.9c-0.2,0.2-0.5,0.4-0.8,0.4L165.9,107.2z"/>
		</g>
	</g>
</g>
</svg>
